<svg xmlns="http://www.w3.org/2000/svg" viewBox="0 0 64 64" width="512px" height="512px"><radialGradient id="l876aztlsUlMdKIli635pa" cx="32" cy="35" r="31.017" gradientTransform="matrix(1 0 0 -1 0 66)" gradientUnits="userSpaceOnUse"><stop offset="0" stop-color="#edd7a1"/><stop offset=".258" stop-color="#f0dba9"/><stop offset=".667" stop-color="#f7e7c0"/><stop offset="1" stop-color="#fff3d8"/></radialGradient><path fill="url(#l876aztlsUlMdKIli635pa)" d="M56,51c0,1.1,0.9,2,2,2c2.33,0,4.22,2.03,3.98,4.41C61.77,59.49,59.9,61,57.81,61H4	c-2.34,0-4.22-2.03-3.98-4.41C0.23,54.51,2.1,53,4.19,53H6c1.11,0,2-0.9,2-2c0-0.55-0.22-1.05-0.58-1.41C7.06,49.22,6.56,49,6,49	c-1.65,0-3-1.35-3-3s1.35-3,3-3h16v-8H5c-2.34,0-4.22-2.03-3.98-4.41C1.23,28.51,3.1,27,5.19,27H8.5c1.93,0,3.5-1.57,3.5-3.5	S10.43,20,8.5,20H6c-2.34,0-4.22-2.03-3.98-4.41C2.23,13.51,4.1,12,6.19,12H19c0.07,0,0.15,0,0.22-0.01c0.09,0,0.19,0.01,0.28,0.01	h2c0.69,0,1.32-0.28,1.77-0.73C23.72,10.82,24,10.19,24,9.5C24,8.12,22.88,7,21.5,7H14c-1.66,0-3-1.34-3-3s1.34-3,3-3h35	c1.66,0,3,1.34,3,3s-1.34,3-3,3h-5.5c-0.69,0-1.32,0.28-1.77,0.73C41.28,8.18,41,8.81,41,9.5c0,1.38,1.12,2.5,2.5,2.5h2	c0.09,0,0.17,0,0.26-0.01c0,0,0.01,0,0.02,0C45.85,12,45.93,12,46,12h12.5c1.93,0,3.5,1.57,3.5,3.5S60.43,19,58.5,19h-9.15	C49.13,19.46,49,19.96,49,20.5c0,0.96,0.39,1.84,1.03,2.47C50.66,23.61,51.54,24,52.5,24h7.31c2.09,0,3.96,1.51,4.17,3.59	C64.22,29.97,62.33,32,60,32H42v10h18.5c1.92,0,3.5,1.58,3.5,3.5S62.42,49,60.5,49H58C56.9,49,56,49.9,56,51z"/><linearGradient id="l876aztlsUlMdKIli635pb" x1="32" x2="32" y1="-17.766" y2="59.058" gradientTransform="matrix(1 0 0 -1 0 66)" gradientUnits="userSpaceOnUse"><stop offset="0" stop-color="#fb537d"/><stop offset=".82" stop-color="#2cafef"/><stop offset="1" stop-color="#2eb5f0"/></linearGradient><circle cx="32" cy="32" r="25" fill="url(#l876aztlsUlMdKIli635pb)"/><linearGradient id="l876aztlsUlMdKIli635pc" x1="32" x2="32" y1="71.681" y2="28.103" gradientTransform="matrix(1 0 0 -1 0 66)" gradientUnits="userSpaceOnUse"><stop offset="0" stop-color="#a4a4a4"/><stop offset=".63" stop-color="#7f7f7f"/><stop offset="1" stop-color="#6f6f6f"/><stop offset="1" stop-color="#6f6f6f"/></linearGradient><circle cx="32" cy="32" r="19" fill="url(#l876aztlsUlMdKIli635pc)"/><path fill="#fff" d="M22.999,42c-0.685,0-1.373-0.233-1.937-0.71c-1.265-1.07-1.422-2.963-0.352-4.228l3.973-4.695	l-4.102-5.593c-0.979-1.336-0.691-3.213,0.646-4.193c1.335-0.979,3.213-0.691,4.193,0.646l5.5,7.5	c0.82,1.118,0.767,2.653-0.129,3.711l-5.5,6.5C24.697,41.639,23.851,42,22.999,42z"/><path fill="#3ed8f1" d="M42.001,42c-0.809,0-1.614-0.324-2.205-0.965l-6-6.5c-1.006-1.09-1.065-2.751-0.139-3.909l6-7.5	c1.036-1.293,2.925-1.503,4.217-0.469c1.294,1.035,1.504,2.923,0.469,4.217l-4.389,5.486l4.25,4.604	c1.124,1.218,1.048,3.116-0.169,4.239C43.458,41.737,42.729,42,42.001,42z"/></svg>